<!-- Generated by IcoMoon.io -->
<svg version="1.1" xmlns="http://www.w3.org/2000/svg" width="32" height="32" viewBox="0 0 32 32">
<path fill="#fff" d="M22.87 20.126h-1.445l-0.512-0.494c1.793-2.086 2.872-4.812 2.872-7.739 0-6.568-5.324-11.893-11.893-11.893s-11.893 5.324-11.893 11.893c0 6.568 5.324 11.892 11.893 11.892 2.927 0 5.635-1.079 7.739-2.872l0.494 0.512v1.445l9.148 9.13 2.726-2.726-9.13-9.148zM11.893 20.126c-4.556 0-8.233-3.696-8.233-8.233 0-4.556 3.678-8.233 8.233-8.233 4.537 0 8.233 3.678 8.233 8.233 0 4.537-3.696 8.233-8.233 8.233z"></path>
</svg>
