<svg aria-hidden="true" style="position: absolute; width: 0; height: 0; overflow: hidden;" version="1.1" xmlns="http://www.w3.org/2000/svg" xmlns:xlink="http://www.w3.org/1999/xlink">
<defs>
<symbol id="icon-menu" viewBox="0 0 32 32">
<path fill="#fff" style="fill: var(--color1, #fff)" d="M7 22h18.010v-2h-18.010v2zM7 17h18.010v-2h-18.010v2zM7 10v2h18.010v-2h-18.010z"></path>
</symbol>
<symbol id="icon-right" viewBox="0 0 20 32">
<path d="M11.517 16.249l-10.038 10.038c-1.307 1.307-1.307 3.426 0 4.732s3.426 1.307 4.733 0l12.455-12.455c1.307-1.307 1.307-3.426 0-4.733-0.168-0.168-0.349-0.314-0.54-0.438l-12.414-12.414c-1.307-1.307-3.426-1.307-4.733 0s-1.307 3.426 0 4.733l10.537 10.537z"></path>
</symbol>
<symbol id="icon-search" viewBox="0 0 32 32">
<path fill="#fff" style="fill: var(--color1, #fff)" d="M22.87 20.126h-1.445l-0.512-0.494c1.793-2.086 2.872-4.812 2.872-7.739 0-6.568-5.324-11.893-11.893-11.893s-11.893 5.324-11.893 11.893c0 6.568 5.324 11.892 11.893 11.892 2.927 0 5.635-1.079 7.739-2.872l0.494 0.512v1.445l9.148 9.13 2.726-2.726-9.13-9.148zM11.893 20.126c-4.556 0-8.233-3.696-8.233-8.233 0-4.556 3.678-8.233 8.233-8.233 4.537 0 8.233 3.678 8.233 8.233 0 4.537-3.696 8.233-8.233 8.233z"></path>
</symbol>
<symbol id="icon-left" viewBox="0 0 20 32">
<path d="M8.129 16.249l10.038 10.038c1.307 1.307 1.307 3.426 0 4.732s-3.426 1.307-4.732 0l-12.455-12.455c-1.307-1.307-1.307-3.426 0-4.733 0.168-0.168 0.349-0.314 0.54-0.438l12.414-12.414c1.307-1.307 3.426-1.307 4.733 0s1.307 3.426 0 4.733l-10.537 10.537z"></path>
</symbol>
<symbol id="icon-google" viewBox="0 0 32 32">
<path d="M16.319 13.713v5.487h9.075c-0.369 2.356-2.744 6.9-9.075 6.9-5.463 0-9.919-4.525-9.919-10.1s4.456-10.1 9.919-10.1c3.106 0 5.188 1.325 6.375 2.469l4.344-4.181c-2.788-2.612-6.4-4.188-10.719-4.188-8.844 0-16 7.156-16 16s7.156 16 16 16c9.231 0 15.363-6.494 15.363-15.631 0-1.050-0.113-1.85-0.25-2.65l-15.113-0.006z"></path>
</symbol>
<symbol id="icon-facebook" viewBox="0 0 32 32">
<path d="M19 6h5v-6h-5c-3.86 0-7 3.14-7 7v3h-4v6h4v16h6v-16h5l1-6h-6v-3c0-0.542 0.458-1 1-1z"></path>
</symbol>
<symbol id="icon-linkedin" viewBox="0 0 32 32">
<path d="M12 12h5.535v2.837h0.079c0.77-1.381 2.655-2.837 5.464-2.837 5.842 0 6.922 3.637 6.922 8.367v9.633h-5.769v-8.54c0-2.037-0.042-4.657-3.001-4.657-3.005 0-3.463 2.218-3.463 4.509v8.688h-5.767v-18z"></path>
<path d="M2 12h6v18h-6v-18z"></path>
<path d="M8 7c0 1.657-1.343 3-3 3s-3-1.343-3-3c0-1.657 1.343-3 3-3s3 1.343 3 3z"></path>
</symbol>
</defs>
</svg>
